<svg width="63" height="71" viewBox="0 0 63 71" fill="none" xmlns="http://www.w3.org/2000/svg">
<path d="M5.73145 63.9025L0 0H63L57.2609 63.8924L31.4617 71L5.73145 63.9025Z" fill="#1572B6"/>
<path d="M31.5 65.5685L52.3486 59.8251L57.2532 5.2261H31.5V65.5685Z" fill="#33A9DC"/>
<path d="M31.5 28.3772H41.9371L42.6567 20.3516H31.5V12.5137H31.5281H51.2768L51.088 14.6159L49.1511 36.2151H31.5V28.3772Z" fill="white"/>
<path d="M31.5485 48.7314L31.5128 48.7415L22.7293 46.3833L22.1679 40.1328H17.8987H14.2495L15.3545 52.4386L31.5102 56.8964L31.5485 56.8862V48.7314Z" fill="#EBEBEB"/>
<path d="M41.2659 35.8829L40.3166 46.3782L31.5204 48.7364V56.8913L47.6889 52.4386L47.8088 51.1149L49.1792 35.8829H41.2659Z" fill="white"/>
<path d="M31.528 12.5137V17.3823V20.3314V20.3516H12.5014H12.4759L12.3177 18.5893L11.9579 14.6159L11.769 12.5137H31.528Z" fill="#EBEBEB"/>
<path d="M31.5 28.3772V33.2457V36.1948V36.2151H22.8518H22.8263L22.668 34.4527L22.3108 30.4793L22.1219 28.3772H31.5Z" fill="#EBEBEB"/>
</svg>
