<svg width="33" height="33" viewBox="0 0 33 33" fill="none" xmlns="http://www.w3.org/2000/svg">
<path d="M16.5 0C20.8761 0 25.0729 1.73839 28.1673 4.83274C31.2616 7.92709 33 12.1239 33 16.5C33 20.8761 31.2616 25.0729 28.1673 28.1673C25.0729 31.2616 20.8761 33 16.5 33C12.1239 33 7.92709 31.2616 4.83274 28.1673C1.73839 25.0729 0 20.8761 0 16.5C0 12.1239 1.73839 7.92709 4.83274 4.83274C7.92709 1.73839 12.1239 0 16.5 0ZM16.5 2.695C8.91825 2.695 2.75 8.86325 2.75 16.5C2.74646 19.4025 3.65786 22.2323 5.35465 24.5872C7.05145 26.9421 9.44732 28.7022 12.2017 29.6175C12.2428 29.6237 12.2841 29.6282 12.3255 29.6312C12.8837 29.6587 13.0928 29.2765 13.0928 28.9437L13.0735 26.5952C9.251 27.4285 8.4425 24.7417 8.4425 24.7417C7.81825 23.1467 6.91625 22.7232 6.91625 22.7232C5.66775 21.8652 7.00975 21.8818 7.00975 21.8818C8.0135 21.9532 8.67075 22.6737 8.95675 23.0643L9.11625 23.3063C10.3428 25.4155 12.3337 24.8077 13.1175 24.4557C13.244 23.562 13.596 22.9542 13.9893 22.6077C10.9367 22.2585 7.7275 21.0732 7.7275 15.7822C7.7275 14.2752 8.26375 13.0432 9.14375 12.0752L9.06125 11.8415C8.88525 11.2833 8.64325 10.032 9.2785 8.4205L9.3885 8.40125C9.7295 8.35725 10.8955 8.3655 13.0598 9.83675C14.1808 9.53011 15.3377 9.37382 16.5 9.372C17.6688 9.3775 18.8457 9.5315 19.943 9.8395C22.5693 8.052 23.7215 8.4205 23.7215 8.4205C24.4695 10.3235 23.9965 11.726 23.859 12.078C24.739 13.0405 25.2698 14.2752 25.2698 15.7822C25.2698 21.0898 22.055 22.2558 18.9915 22.5968C19.4865 23.023 19.9265 23.8673 19.9265 25.1543L19.91 28.9437C19.91 29.3012 20.1438 29.7193 20.7983 29.6175C23.5527 28.7022 25.9485 26.9421 27.6453 24.5872C29.3421 22.2323 30.2535 19.4025 30.25 16.5C30.25 8.86325 24.0817 2.695 16.5 2.695Z" fill="black"/>
</svg>
