<svg width="42" height="31" viewBox="0 0 42 31" fill="none" xmlns="http://www.w3.org/2000/svg">
<path d="M36.75 0H5.25C2.35069 0 0 2.31337 0 5.16667V25.8333C0 28.6866 2.35069 31 5.25 31H36.75C39.6493 31 42 28.6866 42 25.8333V5.16667C42 2.31337 39.6493 0 36.75 0ZM28.1085 13.787L39.2212 4.41484C39.2981 4.65702 39.375 4.89921 39.375 5.16667V25.8333C39.375 26.0125 39.3058 26.1714 39.2699 26.3404L28.1085 13.787ZM36.75 2.58333C36.9243 2.58333 37.0781 2.64897 37.2422 2.68174L21 16.383L4.75781 2.68174C4.92188 2.64897 5.07568 2.58333 5.25 2.58333H36.75ZM2.72885 26.3379C2.69292 26.1688 2.625 26.0125 2.625 25.8333V5.16667C2.625 4.89921 2.70318 4.65702 2.78012 4.41484L13.889 13.7845L2.72885 26.3379ZM5.25 28.4167C4.98471 28.4167 4.7437 28.3409 4.50146 28.2678L15.8833 15.4671L20.1464 19.0621C20.3912 19.2716 20.6962 19.375 21 19.375C21.3038 19.375 21.6088 19.2716 21.8536 19.0622L26.1167 15.4672L37.4985 28.2679C37.2576 28.3409 37.0166 28.4167 36.75 28.4167H5.25Z" fill="black"/>
</svg>
