<svg width="63" height="71" viewBox="0 0 63 71" fill="none" xmlns="http://www.w3.org/2000/svg">
<path d="M5.73354 63.9025L0 0H63L57.2588 63.8924L31.4617 71L5.73354 63.9025Z" fill="#E44F26"/>
<path d="M31.5 65.5685L52.3469 59.8251L57.2512 5.2261H31.5V65.5685Z" fill="#F1662A"/>
<path d="M31.5 28.9249H21.0638L20.3442 20.8994H31.5V13.0615H31.4719H11.7248L11.9136 15.1661L13.8503 36.7628H31.5V28.9249Z" fill="#EBEBEB"/>
<path d="M31.5 49.2791L31.4643 49.2892L22.6816 46.9336L22.1202 40.683H17.8513H14.2025L15.3073 52.9863L31.4643 57.4441L31.5 57.4339V49.2791Z" fill="#EBEBEB"/>
<path d="M31.4719 28.9249V36.7628H41.1835L40.27 46.9285L31.4719 49.2867V57.4415L47.6417 52.9863L47.759 51.6626L49.6115 31.0295L49.8055 28.9249H47.6799H31.4719Z" fill="white"/>
<path d="M31.4719 13.0615V17.93V20.8816V20.8994H50.497H50.5225L50.6807 19.1396L51.0405 15.1661L51.2293 13.0615H31.4719Z" fill="white"/>
</svg>
