<svg width="71" height="71" viewBox="0 0 71 71" fill="none" xmlns="http://www.w3.org/2000/svg">
<path d="M60.35 0H10.65C4.76817 0 0 4.76817 0 10.65V60.35C0 66.2318 4.76817 71 10.65 71H60.35C66.2318 71 71 66.2318 71 60.35V10.65C71 4.76817 66.2318 0 60.35 0Z" fill="#F7DF1E"/>
<path d="M44.9297 51.3086C46.3164 53.666 48.2578 55.3301 51.4473 55.3301C54.2207 55.3301 56.0234 53.9434 56.0234 52.002C56.0234 49.7832 54.2207 48.9512 51.1699 47.5645L49.5059 46.8711C44.6523 44.791 41.4629 42.2949 41.4629 36.8867C41.4629 31.8945 45.207 28.0117 51.1699 28.0117C55.4688 28.0117 58.5195 29.5371 60.5996 33.4199L55.4688 36.748C54.3594 34.668 53.1113 33.8359 51.1699 33.8359C49.2285 33.8359 47.9805 35.084 47.9805 36.748C47.9805 38.6895 49.2285 39.5215 52.1406 40.7695L53.8047 41.4629C59.4902 43.959 62.6797 46.3164 62.6797 52.002C62.6797 57.9648 57.9648 61.293 51.5859 61.293C45.3457 61.293 41.3242 58.3809 39.3828 54.498L44.9297 51.3086ZM21.3555 51.8633C22.4648 53.666 23.2969 55.3301 25.6543 55.3301C27.873 55.3301 29.2598 54.498 29.2598 51.1699V28.1504H35.916V50.8926C35.916 57.8262 31.8945 60.877 25.9316 60.877C20.5234 60.877 17.4727 58.1035 15.9473 54.7754L21.3555 51.8633Z" fill="black"/>
</svg>
