<svg width="33" height="33" viewBox="0 0 33 33" fill="none" xmlns="http://www.w3.org/2000/svg">
<path d="M3.75 0C1.69641 0 0 1.69641 0 3.75V29.25C0 31.3036 1.69641 33 3.75 33H29.25C31.3036 33 33 31.3036 33 29.25V3.75C33 1.69641 31.3036 0 29.25 0H3.75ZM3.75 3H29.25C29.6804 3 30 3.31959 30 3.75V29.25C30 29.6804 29.6804 30 29.25 30H3.75C3.31959 30 3 29.6804 3 29.25V3.75C3 3.31959 3.31959 3 3.75 3ZM8.15625 5.57812C6.73125 5.57812 5.57812 6.73275 5.57812 8.15625C5.57812 9.57975 6.72975 10.7344 8.15625 10.7344C9.57825 10.7344 10.7344 9.57975 10.7344 8.15625C10.7344 6.73425 9.57825 5.57812 8.15625 5.57812ZM21.7031 12.4219C19.5506 12.4219 18.1222 13.5997 17.5312 14.7188H17.4375V12.75H13.2188V27H17.625V19.9688C17.625 18.1117 17.9944 16.3125 20.2969 16.3125C22.5664 16.3125 22.5938 18.411 22.5938 20.0625V27H27V19.1719C27 15.3379 26.1836 12.4219 21.7031 12.4219ZM6 12.75V27H10.4531V12.75H6Z" fill="black"/>
</svg>
