<svg width="80" height="71" viewBox="0 0 80 71" fill="none" xmlns="http://www.w3.org/2000/svg">
<path d="M39.9999 42.7397C44.023 42.7397 47.2843 39.4984 47.2843 35.5C47.2843 31.5016 44.023 28.2603 39.9999 28.2603C35.9769 28.2603 32.7156 31.5016 32.7156 35.5C32.7156 39.4984 35.9769 42.7397 39.9999 42.7397Z" fill="#61DAFB"/>
<path d="M67.6677 23.5608C66.262 23.0528 64.7923 22.5447 63.2588 22.1002C63.6422 20.576 63.9617 19.0519 64.2173 17.5912C65.5591 9.20841 64.0895 3.30232 60 1.0161C58.7859 0.317531 57.4441 0 55.9105 0C51.4377 0 45.7508 3.30233 40 8.82737C34.2492 3.30233 28.5623 0 24.0895 0C22.5559 0 21.2141 0.317531 20 1.0161C15.9105 3.36583 14.4409 9.27191 15.7827 17.5912C16.0383 19.0519 16.3578 20.576 16.7412 22.1002C15.2077 22.5447 13.738 22.9893 12.3323 23.5608C4.34505 26.6091 0 30.8005 0 35.5C0 40.1995 4.40895 44.3909 12.3323 47.4392C13.738 47.9472 15.2077 48.4553 16.7412 48.8998C16.3578 50.424 16.0383 51.9481 15.7827 53.4088C14.4409 61.7916 15.9105 67.6977 20 69.9839C21.2141 70.6825 22.5559 71 24.0895 71C28.6262 71 34.3131 67.6977 40 62.1726C45.7508 67.6977 51.4377 71 55.9105 71C57.4441 71 58.7859 70.6825 60 69.9839C64.0895 67.6342 65.5591 61.7281 64.2173 53.4088C63.9617 51.9481 63.6422 50.424 63.2588 48.8998C64.7923 48.4553 66.262 48.0107 67.6677 47.4392C75.655 44.3909 80 40.1995 80 35.5C80 30.8005 75.655 26.6091 67.6677 23.5608ZM58.2109 4.19141C60.8307 5.71556 61.7252 10.415 60.639 17.0832C60.4473 18.4168 60.1278 19.814 59.7444 21.2746C56.4217 20.5125 52.9073 20.0045 49.2013 19.6869C47.0288 16.6386 44.7923 13.9079 42.5559 11.4311C47.2843 6.79517 52.0767 3.61986 55.9744 3.61986C56.8051 3.61986 57.5719 3.81038 58.2109 4.19141ZM51.0543 41.8506C49.9042 43.8828 48.5623 45.915 47.1565 47.9472C44.7923 48.1377 42.4281 48.2013 40 48.2013C37.508 48.2013 35.1438 48.1377 32.8434 47.9472C31.4377 45.915 30.1597 43.8828 29.0096 41.8506C27.7955 39.7549 26.6454 37.5957 25.623 35.5C26.6454 33.4043 27.7955 31.2451 29.0096 29.1494C30.1597 27.1172 31.5016 25.085 32.9073 23.0528C35.2716 22.8623 37.6358 22.7987 40.0639 22.7987C42.5559 22.7987 44.9201 22.8623 47.2204 23.0528C48.6262 25.085 49.9042 27.1172 51.0543 29.1494C52.2684 31.2451 53.4185 33.4043 54.4409 35.5C53.3546 37.5957 52.2684 39.6914 51.0543 41.8506ZM56.3578 39.7549C57.3163 41.9776 58.0831 44.1368 58.7859 46.2961C56.6134 46.8041 54.3131 47.1852 51.885 47.5027C52.6518 46.2961 53.4824 45.0259 54.1853 43.6923C54.9521 42.3587 55.655 41.025 56.3578 39.7549ZM40 56.9651C38.4665 55.314 36.9968 53.5358 35.5911 51.6941C37.0607 51.7576 38.5304 51.8211 40 51.8211C41.4696 51.8211 42.9393 51.7576 44.4089 51.6941C43.0032 53.5358 41.5335 55.314 40 56.9651ZM28.115 47.4392C25.6869 47.1216 23.3866 46.7406 21.2141 46.2326C21.9169 44.1369 22.6837 41.9141 23.6422 39.6914C24.345 40.9615 25.0479 42.2952 25.8147 43.5653C26.5815 44.9624 27.3482 46.1691 28.115 47.4392ZM23.6422 31.2451C22.6837 29.0224 21.9169 26.8631 21.2141 24.7039C23.3866 24.1959 25.6869 23.8148 28.115 23.4973C27.3482 24.7039 26.5176 25.9741 25.8147 27.3077C25.0479 28.6413 24.345 29.975 23.6422 31.2451ZM40 14.0349C41.5335 15.686 43.0032 17.4642 44.4089 19.3059C42.9393 19.2424 41.4696 19.1789 40 19.1789C38.5304 19.1789 37.0607 19.2424 35.5911 19.3059C36.9968 17.4642 38.4665 15.686 40 14.0349ZM54.1853 27.3712L51.885 23.5608C54.3131 23.8784 56.6134 24.2594 58.7859 24.7674C58.0831 26.8631 57.3163 29.0859 56.3578 31.3086C55.655 29.975 54.9521 28.6413 54.1853 27.3712ZM19.361 17.0832C18.2748 10.415 19.1693 5.71556 21.7891 4.19141C22.4281 3.81038 23.1949 3.61986 24.0256 3.61986C27.8594 3.61986 32.6518 6.73166 37.4441 11.4311C35.2077 13.8444 32.9712 16.6386 30.7987 19.6869C27.0927 20.0045 23.5783 20.576 20.2556 21.2746C19.8722 19.814 19.6166 18.4168 19.361 17.0832ZM3.57827 35.5C3.57827 32.5152 7.22045 29.3399 13.6102 26.9902C14.8882 26.4821 16.2939 26.0376 17.6997 25.6565C18.722 28.8318 20 32.1977 21.5335 35.5635C20 38.9293 18.6581 42.2317 17.6997 45.407C8.88179 42.8667 3.57827 39.0563 3.57827 35.5ZM21.7891 66.8086C19.1693 65.2844 18.2748 60.585 19.361 53.9168C19.5527 52.5832 19.8722 51.186 20.2556 49.7254C23.5783 50.4875 27.0927 50.9955 30.7987 51.3131C32.9712 54.3614 35.2077 57.0921 37.4441 59.5689C32.7157 64.2048 27.9233 67.3801 24.0256 67.3801C23.1949 67.3801 22.4281 67.1896 21.7891 66.8086ZM60.639 53.9168C61.7252 60.585 60.8307 65.2844 58.2109 66.8086C57.5719 67.1896 56.8051 67.3801 55.9744 67.3801C52.1406 67.3801 47.3482 64.2683 42.5559 59.5689C44.7923 57.1556 47.0288 54.3614 49.2013 51.3131C52.9073 50.9955 56.4217 50.424 59.7444 49.7254C60.1278 51.186 60.3834 52.5832 60.639 53.9168ZM66.3898 44.0098C65.1118 44.5179 63.7061 44.9624 62.3003 45.3435C61.278 42.1682 60 38.8023 58.4665 35.4365C60 32.0707 61.3419 28.7683 62.3003 25.593C71.1182 28.1333 76.4217 31.9436 76.4217 35.5C76.4217 38.4848 72.7157 41.6601 66.3898 44.0098Z" fill="#61DAFB"/>
</svg>
