<svg width="95" height="71" viewBox="0 0 95 71" fill="none" xmlns="http://www.w3.org/2000/svg">
<path d="M81.7931 40.8498C78.8101 40.8537 75.8669 41.5341 73.1863 42.8397C72.347 41.4503 71.6989 39.9546 71.2594 38.3929C71.0068 37.1687 70.9485 35.9125 71.0863 34.6703C71.3763 33.3033 71.7525 31.956 72.2127 30.6363C72.1957 30.4637 72.0057 29.6482 70.0957 29.6211C68.1858 29.594 66.5404 29.9832 66.364 30.4874C66.0323 31.4084 65.7659 32.3516 65.5667 33.3098C63.986 37.2 62.0402 40.9324 59.7554 44.4573C58.4752 42.3639 57.9487 39.8977 58.2627 37.4656C58.5526 36.0987 58.9288 34.7513 59.389 33.4317C59.372 33.2591 59.182 32.4435 57.272 32.4164C55.3621 32.3893 53.7167 32.7785 53.5403 33.2828C53.3639 33.787 53.14 34.9749 52.743 36.1052C52.3461 37.2355 47.712 47.564 46.4974 50.2273C45.8732 51.581 45.3338 52.6842 44.9538 53.4288C44.9358 53.4771 44.9131 53.5236 44.886 53.5675C44.5467 54.2071 44.3669 54.5557 44.3669 54.5557V54.5726C44.1057 55.0396 43.8275 55.4728 43.6884 55.4728C43.4458 54.5059 43.4575 53.493 43.7224 52.532C44.4009 48.9481 46.0632 43.3778 46.0462 43.1849C46.0462 43.08 46.3583 42.1121 44.9708 41.6112C44.649 41.4585 44.2876 41.409 43.9365 41.4696C43.5853 41.5302 43.2616 41.6979 43.0099 41.9496C42.8878 41.9496 42.803 42.2441 42.803 42.2441C42.803 42.2441 44.3127 35.98 39.9227 35.98C38.2132 36.323 36.5897 37.0036 35.1478 37.9817C33.7058 38.9598 32.4745 40.2157 31.5263 41.6755C30.3457 42.3151 27.8318 43.6823 25.1416 45.1545C24.1238 45.7264 23.0586 46.2983 22.0714 46.8465C22.0035 46.7789 21.9323 46.6909 21.8644 46.6232C16.5212 40.9445 6.69989 36.9377 7.12395 29.3402C7.28001 26.5719 8.23331 19.3027 25.9829 10.4734C40.5911 3.2922 52.2172 5.2821 54.229 9.69506C57.1092 15.9964 48.0003 27.6955 32.907 29.391C31.2373 29.7289 29.5127 29.6881 27.8609 29.2716C26.209 28.8551 24.6722 28.0736 23.3639 26.9848C22.5667 26.1185 22.4445 26.0677 22.1494 26.2403C21.6643 26.5009 21.9764 27.2792 22.1494 27.7293C22.7252 28.7688 23.504 29.6826 24.4398 30.4167C25.3756 31.1508 26.4494 31.6904 27.5978 32.0036C33.5354 33.2835 39.7261 32.6715 45.2965 30.2539C54.4563 26.7242 61.5805 16.9101 59.4907 8.68996C57.3908 0.347972 43.512 -2.40336 30.3762 2.26003C22.1485 5.02177 14.5462 9.37188 8.00262 15.0624C0.766391 21.8138 -0.376886 27.6786 0.0912807 30.1389C1.78754 38.8633 13.8343 44.5385 18.6551 48.7518C18.4108 48.8906 18.1869 49.0124 17.997 49.1139C15.5849 50.3086 6.39117 55.1039 4.08766 60.1734C1.4856 65.9265 4.50494 70.0383 6.49973 70.5933C9.50552 71.311 12.661 71.0746 15.5255 69.917C18.3901 68.7595 20.8209 66.7385 22.4785 64.1363C23.89 61.9779 24.7576 59.5112 25.0074 56.9462C25.2573 54.3813 24.882 51.7941 23.9135 49.405C23.8971 49.3664 23.8742 49.3309 23.8456 49.3001L25.7353 48.1934C26.9667 47.4658 28.1813 46.7924 29.2228 46.2374C28.5165 48.2694 28.1019 50.3909 27.9913 52.5387C27.7515 55.8308 28.7614 59.0924 30.8206 61.676C31.134 61.9451 31.4977 62.1494 31.8908 62.2772C32.2839 62.405 32.6985 62.4537 33.1106 62.4205C35.1461 62.4205 36.079 60.7284 37.1002 58.7182C38.3486 56.2613 39.4749 53.4051 39.4749 53.4051C39.4749 53.4051 38.0704 61.1244 41.887 61.1244C43.2745 61.1244 44.679 59.324 45.3067 58.417V58.434C45.3067 58.434 45.3406 58.3832 45.4118 58.2614L45.6357 57.8993V57.8654C46.1921 56.8975 47.4405 54.6978 49.2963 51.0463C51.6914 46.3389 53.9983 40.4538 53.9983 40.4538C54.2208 41.7472 54.5279 43.0246 54.9176 44.278C55.4764 45.7972 56.1372 47.2772 56.8955 48.7078C56.3391 49.4862 55.9931 49.9194 55.9931 49.9194L56.01 49.9363C55.5588 50.5251 55.0737 51.1648 54.5343 51.7874C52.9294 53.5475 51.4404 55.4093 50.0765 57.3612C49.8739 57.689 49.8042 58.0816 49.8818 58.4589C49.9593 58.8362 50.1782 59.1698 50.4938 59.3917C51.208 59.7624 52.022 59.8963 52.8177 59.7741C54.0167 59.7066 55.1958 59.4377 56.3052 58.9788C57.3773 58.6025 58.3887 58.0724 59.3076 57.4052C60.2548 56.7505 61.0174 55.8637 61.5218 54.8301C62.0262 53.7965 62.2556 52.6508 62.1878 51.5032C62.0811 50.0576 61.7109 48.6435 61.0954 47.3305C61.2684 47.0868 61.4347 46.8465 61.5975 46.6029C63.5263 43.731 65.2647 40.7364 66.8016 37.6382C67.0241 38.9315 67.3312 40.209 67.721 41.4623C68.1818 42.7752 68.7491 44.0485 69.4172 45.2695C67.1983 46.9725 65.4506 49.2109 64.3386 51.7739C63.2463 54.9246 64.0944 56.3425 65.6956 56.6708C66.5718 56.7311 67.4479 56.5521 68.2299 56.153C69.3795 55.7761 70.4625 55.2211 71.4392 54.5083C72.469 53.902 73.3315 53.0499 73.9492 52.0285C74.5668 51.0071 74.9202 49.8485 74.9776 48.6571C74.9005 47.4678 74.6313 46.2987 74.1803 45.1951C77.1084 44.0539 80.2832 43.6901 83.3944 44.1392C91.6517 45.1071 93.2835 50.2476 92.9714 52.4135C92.8251 53.1813 92.5156 53.909 92.0639 54.5476C91.6121 55.1862 91.0286 55.7209 90.3524 56.1158C89.7791 56.4779 89.5891 56.5997 89.64 56.8603C89.7078 57.2427 89.9792 57.2224 90.4711 57.1547C91.7157 56.7689 92.8137 56.0158 93.6204 54.9948C94.4271 53.9737 94.9047 52.7327 94.99 51.4355C95.2512 46.3592 90.3931 40.7923 81.8033 40.843L81.7931 40.8498ZM18.0818 62.2648C15.3406 65.2429 11.524 66.3665 9.87528 65.4155C8.10439 64.4003 8.79985 60.0008 12.1652 56.8468C14.1615 55.0542 16.3193 53.4489 18.611 52.0514C19.0113 51.8077 19.6016 51.4626 20.3073 51.0362L20.4972 50.9312L20.9145 50.6707C21.5157 52.6802 21.5703 54.8131 21.0725 56.8505C20.5747 58.888 19.5425 60.7567 18.0818 62.2648ZM38.0331 48.7281C37.0798 51.0463 35.085 56.9855 33.8705 56.6539C32.829 56.3764 32.1743 51.8754 33.6636 47.4286C34.4155 45.288 35.5108 43.2833 36.9068 41.4928C38.3995 39.8311 40.0483 39.2761 40.4452 39.953C40.0831 42.9814 39.2701 45.939 38.0331 48.7281ZM54.497 56.5862C54.0967 56.7926 53.7167 56.9246 53.5437 56.8299C53.4215 56.7622 53.7167 56.4914 53.7167 56.4914C53.7167 56.4914 55.7827 54.2748 56.5969 53.2731C57.0651 52.6842 57.6147 51.9939 58.2118 51.2121V51.4355C58.2118 54.0819 55.6436 55.8654 54.5004 56.593L54.497 56.5862ZM67.1985 53.6961C66.9034 53.4897 66.9543 52.7959 67.9449 50.6334C68.6337 49.2446 69.5959 48.0085 70.7742 46.9988C70.9549 47.5111 71.0489 48.0498 71.0524 48.5928C71.0658 49.7486 70.6953 50.8764 69.9988 51.8001C69.3023 52.7239 68.3188 53.3917 67.2019 53.6995L67.1985 53.6961Z" fill="#CD6799"/>
</svg>
