<svg width="71" height="43" viewBox="0 0 71 43" fill="none" xmlns="http://www.w3.org/2000/svg">
<path d="M17.75 14.3333C20.1167 4.77778 26.0333 0 35.5 0C49.7 0 51.475 10.75 58.575 12.5417C63.3083 13.7361 67.45 11.9444 71 7.16666C68.6333 16.7222 62.7167 21.5 53.25 21.5C39.05 21.5 37.275 10.75 30.175 8.95833C25.4417 7.76389 21.3 9.55555 17.75 14.3333ZM0 35.8333C2.36667 26.2778 8.28333 21.5 17.75 21.5C31.95 21.5 33.725 32.25 40.825 34.0417C45.5583 35.2361 49.7 33.4444 53.25 28.6667C50.8833 38.2222 44.9667 43 35.5 43C21.3 43 19.525 32.25 12.425 30.4583C7.69167 29.2639 3.55 31.0556 0 35.8333Z" fill="#44A8B3"/>
</svg>
