<svg width="943" height="71" viewBox="0 0 943 71" fill="none" xmlns="http://www.w3.org/2000/svg">
<path d="M5.73354 63.9025L0 0H63L57.2588 63.8924L31.4617 71L5.73354 63.9025Z" fill="#E44F26"/>
<path d="M31.5 65.5685L52.3469 59.8251L57.2512 5.2261H31.5V65.5685Z" fill="#F1662A"/>
<path d="M31.5 28.9249H21.0638L20.3442 20.8994H31.5V13.0615H31.4719H11.7248L11.9136 15.1661L13.8503 36.7628H31.5V28.9249Z" fill="#EBEBEB"/>
<path d="M31.5 49.2791L31.4643 49.2892L22.6816 46.9336L22.1202 40.683H17.8513H14.2025L15.3073 52.9863L31.4643 57.4441L31.5 57.4339V49.2791Z" fill="#EBEBEB"/>
<path d="M31.4719 28.9249V36.7628H41.1835L40.27 46.9285L31.4719 49.2867V57.4415L47.6417 52.9863L47.759 51.6626L49.6115 31.0295L49.8055 28.9249H47.6799H31.4719Z" fill="white"/>
<path d="M31.4719 13.0615V17.93V20.8816V20.8994H50.497H50.5225L50.6807 19.1396L51.0405 15.1661L51.2293 13.0615H31.4719Z" fill="white"/>
<path d="M386.35 0H336.65C330.768 0 326 4.76817 326 10.65V60.35C326 66.2318 330.768 71 336.65 71H386.35C392.232 71 397 66.2318 397 60.35V10.65C397 4.76817 392.232 0 386.35 0Z" fill="#F7DF1E"/>
<path d="M370.93 51.3086C372.316 53.666 374.258 55.3301 377.447 55.3301C380.221 55.3301 382.023 53.9434 382.023 52.002C382.023 49.7832 380.221 48.9512 377.17 47.5645L375.506 46.8711C370.652 44.791 367.463 42.2949 367.463 36.8867C367.463 31.8945 371.207 28.0117 377.17 28.0117C381.469 28.0117 384.52 29.5371 386.6 33.4199L381.469 36.748C380.359 34.668 379.111 33.8359 377.17 33.8359C375.229 33.8359 373.98 35.084 373.98 36.748C373.98 38.6895 375.229 39.5215 378.141 40.7695L379.805 41.4629C385.49 43.959 388.68 46.3164 388.68 52.002C388.68 57.9648 383.965 61.293 377.586 61.293C371.346 61.293 367.324 58.3809 365.383 54.498L370.93 51.3086ZM347.355 51.8633C348.465 53.666 349.297 55.3301 351.654 55.3301C353.873 55.3301 355.26 54.498 355.26 51.1699V28.1504H361.916V50.8926C361.916 57.8262 357.895 60.877 351.932 60.877C346.523 60.877 343.473 58.1035 341.947 54.7754L347.355 51.8633Z" fill="black"/>
<path d="M537 42.7397C541.023 42.7397 544.284 39.4984 544.284 35.5C544.284 31.5016 541.023 28.2603 537 28.2603C532.977 28.2603 529.716 31.5016 529.716 35.5C529.716 39.4984 532.977 42.7397 537 42.7397Z" fill="#61DAFB"/>
<path d="M564.668 23.5608C563.262 23.0528 561.792 22.5447 560.259 22.1002C560.642 20.576 560.962 19.0519 561.217 17.5912C562.559 9.20841 561.089 3.30233 557 1.0161C555.786 0.317531 554.444 0 552.911 0C548.438 0 542.751 3.30233 537 8.82737C531.249 3.30233 525.562 0 521.089 0C519.556 0 518.214 0.317531 517 1.0161C512.911 3.36583 511.441 9.27191 512.783 17.5912C513.038 19.0519 513.358 20.576 513.741 22.1002C512.208 22.5447 510.738 22.9893 509.332 23.5608C501.345 26.6091 497 30.8005 497 35.5C497 40.1995 501.409 44.3909 509.332 47.4392C510.738 47.9472 512.208 48.4553 513.741 48.8998C513.358 50.424 513.038 51.9481 512.783 53.4088C511.441 61.7916 512.911 67.6977 517 69.9839C518.214 70.6825 519.556 71 521.089 71C525.626 71 531.313 67.6977 537 62.1726C542.751 67.6977 548.438 71 552.911 71C554.444 71 555.786 70.6825 557 69.9839C561.089 67.6342 562.559 61.7281 561.217 53.4088C560.962 51.9481 560.642 50.424 560.259 48.8998C561.792 48.4553 563.262 48.0107 564.668 47.4392C572.655 44.3909 577 40.1995 577 35.5C577 30.8005 572.655 26.6091 564.668 23.5608ZM555.211 4.19141C557.831 5.71556 558.725 10.415 557.639 17.0832C557.447 18.4168 557.128 19.814 556.744 21.2746C553.422 20.5125 549.907 20.0045 546.201 19.6869C544.029 16.6386 541.792 13.9079 539.556 11.4311C544.284 6.79517 549.077 3.61986 552.974 3.61986C553.805 3.61986 554.572 3.81037 555.211 4.19141ZM548.054 41.8506C546.904 43.8828 545.562 45.915 544.157 47.9472C541.792 48.1377 539.428 48.2013 537 48.2013C534.508 48.2013 532.144 48.1377 529.843 47.9472C528.438 45.915 527.16 43.8828 526.01 41.8506C524.796 39.7549 523.645 37.5957 522.623 35.5C523.645 33.4043 524.796 31.2451 526.01 29.1494C527.16 27.1172 528.502 25.085 529.907 23.0528C532.272 22.8623 534.636 22.7987 537.064 22.7987C539.556 22.7987 541.92 22.8623 544.22 23.0528C545.626 25.085 546.904 27.1172 548.054 29.1494C549.268 31.2451 550.419 33.4043 551.441 35.5C550.355 37.5957 549.268 39.6914 548.054 41.8506ZM553.358 39.7549C554.316 41.9776 555.083 44.1368 555.786 46.2961C553.613 46.8041 551.313 47.1852 548.885 47.5027C549.652 46.2961 550.482 45.0259 551.185 43.6923C551.952 42.3587 552.655 41.025 553.358 39.7549ZM537 56.9651C535.466 55.314 533.997 53.5358 532.591 51.6941C534.061 51.7576 535.53 51.8211 537 51.8211C538.47 51.8211 539.939 51.7576 541.409 51.6941C540.003 53.5358 538.534 55.314 537 56.9651ZM525.115 47.4392C522.687 47.1216 520.387 46.7406 518.214 46.2326C518.917 44.1369 519.684 41.9141 520.642 39.6914C521.345 40.9615 522.048 42.2952 522.815 43.5653C523.581 44.9624 524.348 46.1691 525.115 47.4392ZM520.642 31.2451C519.684 29.0224 518.917 26.8631 518.214 24.7039C520.387 24.1959 522.687 23.8148 525.115 23.4973C524.348 24.7039 523.518 25.9741 522.815 27.3077C522.048 28.6413 521.345 29.975 520.642 31.2451ZM537 14.0349C538.534 15.686 540.003 17.4642 541.409 19.3059C539.939 19.2424 538.47 19.1789 537 19.1789C535.53 19.1789 534.061 19.2424 532.591 19.3059C533.997 17.4642 535.466 15.686 537 14.0349ZM551.185 27.3712L548.885 23.5608C551.313 23.8784 553.613 24.2594 555.786 24.7674C555.083 26.8631 554.316 29.0859 553.358 31.3086C552.655 29.975 551.952 28.6413 551.185 27.3712ZM516.361 17.0832C515.275 10.415 516.169 5.71556 518.789 4.19141C519.428 3.81037 520.195 3.61986 521.026 3.61986C524.859 3.61986 529.652 6.73166 534.444 11.4311C532.208 13.8444 529.971 16.6386 527.799 19.6869C524.093 20.0045 520.578 20.576 517.256 21.2746C516.872 19.814 516.617 18.4168 516.361 17.0832ZM500.578 35.5C500.578 32.5152 504.22 29.3399 510.61 26.9902C511.888 26.4821 513.294 26.0376 514.7 25.6565C515.722 28.8318 517 32.1977 518.534 35.5635C517 38.9293 515.658 42.2317 514.7 45.407C505.882 42.8667 500.578 39.0564 500.578 35.5ZM518.789 66.8086C516.169 65.2844 515.275 60.585 516.361 53.9168C516.553 52.5832 516.872 51.186 517.256 49.7254C520.578 50.4875 524.093 50.9955 527.799 51.3131C529.971 54.3614 532.208 57.0921 534.444 59.5689C529.716 64.2048 524.923 67.3801 521.026 67.3801C520.195 67.3801 519.428 67.1896 518.789 66.8086ZM557.639 53.9168C558.725 60.585 557.831 65.2844 555.211 66.8086C554.572 67.1896 553.805 67.3801 552.974 67.3801C549.141 67.3801 544.348 64.2683 539.556 59.5689C541.792 57.1556 544.029 54.3614 546.201 51.3131C549.907 50.9955 553.422 50.424 556.744 49.7254C557.128 51.186 557.383 52.5832 557.639 53.9168ZM563.39 44.0098C562.112 44.5179 560.706 44.9624 559.3 45.3435C558.278 42.1682 557 38.8023 555.466 35.4365C557 32.0707 558.342 28.7683 559.3 25.593C568.118 28.1333 573.422 31.9436 573.422 35.5C573.422 38.4848 569.716 41.6601 563.39 44.0098Z" fill="#61DAFB"/>
<path d="M889.75 23.3333C892.117 13.7778 898.033 9 907.5 9C921.7 9 923.475 19.75 930.575 21.5417C935.308 22.7361 939.45 20.9444 943 16.1667C940.633 25.7222 934.717 30.5 925.25 30.5C911.05 30.5 909.275 19.75 902.175 17.9583C897.442 16.7639 893.3 18.5556 889.75 23.3333ZM872 44.8333C874.367 35.2778 880.283 30.5 889.75 30.5C903.95 30.5 905.725 41.25 912.825 43.0417C917.558 44.2361 921.7 42.4444 925.25 37.6667C922.883 47.2222 916.967 52 907.5 52C893.3 52 891.525 41.25 884.425 39.4583C879.692 38.2639 875.55 40.0556 872 44.8333Z" fill="#44A8B3"/>
<path d="M758.793 40.8498C755.81 40.8537 752.867 41.5341 750.186 42.8397C749.347 41.4503 748.699 39.9546 748.259 38.3929C748.007 37.1687 747.948 35.9125 748.086 34.6703C748.376 33.3033 748.753 31.956 749.213 30.6363C749.196 30.4637 749.006 29.6482 747.096 29.6211C745.186 29.594 743.54 29.9832 743.364 30.4874C743.032 31.4084 742.766 32.3516 742.567 33.3098C740.986 37.2 739.04 40.9324 736.755 44.4573C735.475 42.3639 734.949 39.8977 735.263 37.4656C735.553 36.0987 735.929 34.7513 736.389 33.4317C736.372 33.2591 736.182 32.4435 734.272 32.4164C732.362 32.3893 730.717 32.7785 730.54 33.2828C730.364 33.787 730.14 34.9749 729.743 36.1052C729.346 37.2355 724.712 47.564 723.497 50.2273C722.873 51.581 722.334 52.6842 721.954 53.4288C721.936 53.4771 721.913 53.5236 721.886 53.5675C721.547 54.2071 721.367 54.5557 721.367 54.5557V54.5726C721.106 55.0396 720.828 55.4728 720.688 55.4728C720.446 54.5059 720.458 53.493 720.722 52.532C721.401 48.9481 723.063 43.3778 723.046 43.1849C723.046 43.08 723.358 42.1121 721.971 41.6112C721.649 41.4585 721.288 41.409 720.936 41.4696C720.585 41.5302 720.262 41.6979 720.01 41.9496C719.888 41.9496 719.803 42.2441 719.803 42.2441C719.803 42.2441 721.313 35.98 716.923 35.98C715.213 36.323 713.59 37.0036 712.148 37.9817C710.706 38.9598 709.475 40.2157 708.526 41.6755C707.346 42.3151 704.832 43.6823 702.142 45.1545C701.124 45.7264 700.059 46.2983 699.071 46.8465C699.004 46.7789 698.932 46.6909 698.864 46.6232C693.521 40.9445 683.7 36.9377 684.124 29.3402C684.28 26.5719 685.233 19.3027 702.983 10.4734C717.591 3.2922 729.217 5.2821 731.229 9.69506C734.109 15.9964 725 27.6955 709.907 29.391C708.237 29.7289 706.513 29.6881 704.861 29.2716C703.209 28.8551 701.672 28.0736 700.364 26.9848C699.567 26.1185 699.445 26.0677 699.149 26.2403C698.664 26.5009 698.976 27.2792 699.149 27.7293C699.725 28.7688 700.504 29.6826 701.44 30.4167C702.376 31.1508 703.449 31.6904 704.598 32.0036C710.535 33.2835 716.726 32.6715 722.296 30.2539C731.456 26.7242 738.581 16.9101 736.491 8.68996C734.391 0.347972 720.512 -2.40336 707.376 2.26003C699.149 5.02177 691.546 9.37188 685.003 15.0624C677.766 21.8138 676.623 27.6786 677.091 30.1389C678.788 38.8633 690.834 44.5385 695.655 48.7518C695.411 48.8906 695.187 49.0124 694.997 49.1139C692.585 50.3086 683.391 55.1039 681.088 60.1734C678.486 65.9265 681.505 70.0383 683.5 70.5933C686.506 71.311 689.661 71.0746 692.526 69.917C695.39 68.7595 697.821 66.7385 699.478 64.1363C700.89 61.9779 701.758 59.5112 702.007 56.9462C702.257 54.3813 701.882 51.7941 700.913 49.405C700.897 49.3664 700.874 49.3309 700.846 49.3001L702.735 48.1934C703.967 47.4659 705.181 46.7924 706.223 46.2374C705.517 48.2694 705.102 50.3909 704.991 52.5387C704.751 55.8307 705.761 59.0924 707.821 61.676C708.134 61.9451 708.498 62.1494 708.891 62.2772C709.284 62.405 709.698 62.4537 710.111 62.4205C712.146 62.4205 713.079 60.7284 714.1 58.7182C715.349 56.2613 716.475 53.4051 716.475 53.4051C716.475 53.4051 715.07 61.1244 718.887 61.1244C720.275 61.1244 721.679 59.324 722.307 58.417V58.434C722.307 58.434 722.341 58.3832 722.412 58.2614L722.636 57.8993V57.8654C723.192 56.8975 724.441 54.6978 726.296 51.0463C728.691 46.3389 730.998 40.4538 730.998 40.4538C731.221 41.7472 731.528 43.0246 731.918 44.278C732.476 45.7972 733.137 47.2772 733.895 48.7078C733.339 49.4862 732.993 49.9194 732.993 49.9194L733.01 49.9363C732.559 50.5251 732.074 51.1648 731.534 51.7874C729.929 53.5475 728.44 55.4093 727.077 57.3612C726.874 57.689 726.804 58.0816 726.882 58.4589C726.959 58.8362 727.178 59.1698 727.494 59.3917C728.208 59.7624 729.022 59.8963 729.818 59.7741C731.017 59.7066 732.196 59.4377 733.305 58.9788C734.377 58.6025 735.389 58.0724 736.308 57.4052C737.255 56.7505 738.017 55.8637 738.522 54.8301C739.026 53.7965 739.256 52.6508 739.188 51.5032C739.081 50.0576 738.711 48.6435 738.095 47.3305C738.268 47.0868 738.435 46.8465 738.597 46.6029C740.526 43.731 742.265 40.7364 743.802 37.6382C744.024 38.9315 744.331 40.209 744.721 41.4623C745.182 42.7752 745.749 44.0485 746.417 45.2695C744.198 46.9725 742.451 49.2109 741.339 51.7739C740.246 54.9246 741.094 56.3425 742.696 56.6708C743.572 56.7311 744.448 56.5521 745.23 56.153C746.379 55.7761 747.463 55.2211 748.439 54.5083C749.469 53.902 750.332 53.0499 750.949 52.0285C751.567 51.0071 751.92 49.8485 751.978 48.6571C751.901 47.4678 751.631 46.2987 751.18 45.1951C754.108 44.0539 757.283 43.6901 760.394 44.1392C768.652 45.1071 770.284 50.2476 769.971 52.4135C769.825 53.1813 769.516 53.909 769.064 54.5476C768.612 55.1862 768.029 55.7209 767.352 56.1158C766.779 56.4779 766.589 56.5997 766.64 56.8603C766.708 57.2427 766.979 57.2224 767.471 57.1547C768.716 56.7689 769.814 56.0158 770.62 54.9948C771.427 53.9737 771.905 52.7327 771.99 51.4355C772.251 46.3592 767.393 40.7923 758.803 40.843L758.793 40.8498ZM695.082 62.2648C692.341 65.2429 688.524 66.3665 686.875 65.4155C685.104 64.4003 685.8 60.0008 689.165 56.8468C691.162 55.0542 693.319 53.4489 695.611 52.0514C696.011 51.8077 696.602 51.4626 697.307 51.0362L697.497 50.9312L697.915 50.6707C698.516 52.6802 698.57 54.8131 698.072 56.8505C697.575 58.888 696.542 60.7567 695.082 62.2648ZM715.033 48.7281C714.08 51.0463 712.085 56.9855 710.871 56.6539C709.829 56.3764 709.174 51.8754 710.664 47.4286C711.416 45.288 712.511 43.2833 713.907 41.4928C715.4 39.8311 717.048 39.2761 717.445 39.953C717.083 42.9814 716.27 45.939 715.033 48.7281ZM731.497 56.5862C731.097 56.7926 730.717 56.9246 730.544 56.8299C730.422 56.7622 730.717 56.4914 730.717 56.4914C730.717 56.4914 732.783 54.2748 733.597 53.2731C734.065 52.6842 734.615 51.9939 735.212 51.2121V51.4355C735.212 54.0819 732.644 55.8654 731.5 56.593L731.497 56.5862ZM744.199 53.6961C743.903 53.4897 743.954 52.7959 744.945 50.6334C745.634 49.2446 746.596 48.0085 747.774 46.9988C747.955 47.5111 748.049 48.0498 748.052 48.5928C748.066 49.7486 747.695 50.8764 746.999 51.8001C746.302 52.7239 745.319 53.3917 744.202 53.6995L744.199 53.6961Z" fill="#CD6799"/>
<path d="M168.731 63.9025L163 0H226L220.261 63.8924L194.462 71L168.731 63.9025Z" fill="#1572B6"/>
<path d="M194.5 65.5685L215.349 59.8251L220.253 5.2261H194.5V65.5685Z" fill="#33A9DC"/>
<path d="M194.5 28.3772H204.937L205.657 20.3516H194.5V12.5137H194.528H214.277L214.088 14.6159L212.151 36.2151H194.5V28.3772Z" fill="white"/>
<path d="M194.548 48.7314L194.513 48.7415L185.729 46.3833L185.168 40.1328H180.899H177.25L178.354 52.4386L194.51 56.8964L194.548 56.8862V48.7314Z" fill="#EBEBEB"/>
<path d="M204.266 35.8829L203.317 46.3782L194.52 48.7364V56.8913L210.689 52.4386L210.809 51.1149L212.179 35.8829H204.266Z" fill="white"/>
<path d="M194.528 12.5137V17.3823V20.3314V20.3516H175.501H175.476L175.318 18.5893L174.958 14.6159L174.769 12.5137H194.528Z" fill="#EBEBEB"/>
<path d="M194.5 28.3772V33.2457V36.1948V36.2151H185.852H185.826L185.668 34.4527L185.311 30.4793L185.122 28.3772H194.5Z" fill="#EBEBEB"/>
</svg>
